<?xml version="1.0" standalone="no"?>
<!DOCTYPE svg PUBLIC "-//W3C//DTD SVG 20010904//EN"
 "http://www.w3.org/TR/2001/REC-SVG-20010904/DTD/svg10.dtd">
<svg version="1.0" xmlns="http://www.w3.org/2000/svg"
 width="1024.000000pt" height="1024.000000pt" viewBox="0 0 1024.000000 1024.000000"
 preserveAspectRatio="xMidYMid meet">

<g transform="translate(0.000000,1024.000000) scale(0.100000,-0.100000)"
fill="#000000" stroke="none">
<path d="M5235 7135 c-115 -52 -235 -105 -265 -119 -30 -14 -104 -48 -165 -75
l-109 -50 114 -113 114 -112 9 29 c47 141 227 264 386 265 52 0 151 -25 200
-50 125 -64 221 -215 221 -347 0 -29 4 -53 9 -53 20 0 291 114 289 121 -7 20
-574 599 -585 598 -4 0 -102 -43 -218 -94z"/>
<path d="M3817 7080 c-44 -13 -95 -57 -120 -103 -18 -34 -22 -58 -21 -127 0
-87 13 -126 64 -200 460 -654 455 -644 454 -795 -1 -82 -6 -112 -26 -165 -46
-118 -102 -202 -220 -327 -74 -78 -89 -113 -67 -152 46 -82 271 -159 528 -182
564 -49 1267 195 1866 650 80 60 242 200 280 241 l30 33 -50 -36 c-118 -84
-270 -143 -439 -172 -383 -65 -855 99 -1221 426 -72 64 -425 417 -505 504
-318 347 -360 388 -420 405 -41 12 -94 12 -133 0z"/>
<path d="M6424 4350 c-59 -8 -228 -60 -263 -80 -11 -7 5 -9 52 -10 78 0 130
-21 171 -70 21 -26 26 -42 26 -88 0 -72 -23 -118 -98 -195 -106 -107 -305
-219 -562 -315 -258 -97 -362 -123 -574 -147 -680 -75 -1334 161 -1856 669
-52 50 -115 114 -139 140 -25 27 -47 44 -52 39 -9 -9 50 -162 96 -248 47 -87
129 -207 214 -312 317 -394 850 -724 1374 -852 227 -56 310 -65 567 -65 257 0
331 9 562 64 585 140 1046 506 1097 870 21 155 -28 295 -148 422 -134 143
-291 203 -467 178z"/>
<path d="M2078 4304 c-31 -18 -110 -60 -175 -94 -65 -34 -122 -66 -128 -70 -5
-4 -50 -29 -100 -55 -49 -26 -112 -60 -140 -75 -27 -15 -138 -75 -245 -133
-107 -57 -215 -116 -240 -129 -25 -14 -76 -42 -115 -63 -147 -79 -330 -178
-334 -181 -10 -9 125 -332 215 -514 685 -1385 1998 -2361 3509 -2610 300 -49
468 -62 795 -62 327 0 495 13 795 62 1201 198 2295 861 3032 1838 198 261 324
466 472 763 85 169 221 488 221 516 0 5 -15 17 -33 26 -38 19 -164 88 -257
139 -36 19 -153 83 -260 141 -107 57 -215 116 -240 129 -25 14 -76 42 -115 63
-38 21 -126 68 -195 105 -69 37 -156 84 -195 105 -126 68 -180 97 -211 116
-32 20 -44 17 -44 -11 0 -31 -82 -266 -140 -400 -164 -378 -371 -682 -658
-967 -773 -768 -1870 -1068 -2932 -803 -1036 259 -1888 1075 -2189 2097 -15
51 -29 94 -32 96 -2 2 -30 -11 -61 -29z m6259 -1107 l73 -223 251 -11 c138 -6
253 -14 256 -17 6 -5 -65 -106 -117 -167 l-25 -30 -193 12 c-181 11 -193 11
-212 -6 -20 -18 -18 -20 107 -112 70 -51 131 -97 136 -102 13 -13 -112 -182
-127 -174 -15 9 -639 463 -650 473 -6 6 75 131 115 174 4 5 64 -33 132 -83 69
-50 130 -91 136 -91 26 0 22 53 -12 148 -19 53 -47 132 -62 175 l-28 78 34 47
c78 110 95 131 104 131 6 1 43 -100 82 -222z m-6250 -2 c148 -210 170 -258
152 -330 -15 -59 -59 -109 -125 -141 -62 -30 -116 -34 -159 -11 l-30 15 0 -62
c0 -77 -27 -116 -117 -169 -97 -58 -177 -47 -255 35 -43 45 -282 381 -277 389
2 4 102 77 221 162 120 86 265 189 323 231 58 42 111 75 119 73 8 -1 74 -87
148 -192z m578 -657 l214 -191 -19 -26 c-10 -14 -36 -43 -57 -63 l-38 -37
-134 118 -134 119 -48 -52 c-27 -28 -48 -55 -48 -61 1 -5 50 -53 109 -105 60
-52 109 -97 109 -100 0 -3 -24 -32 -53 -65 l-54 -59 -43 36 c-24 20 -75 66
-114 102 l-70 66 -52 -57 c-29 -31 -53 -59 -53 -63 0 -4 51 -52 113 -107 167
-150 157 -131 96 -197 -28 -31 -56 -56 -61 -56 -8 0 -120 98 -323 281 -22 20
-56 50 -75 67 l-34 30 79 88 c44 49 82 91 85 94 13 12 337 375 358 401 13 16
26 29 28 29 3 0 101 -86 219 -192z m4990 -29 c55 -34 120 -74 145 -90 25 -16
142 -89 260 -163 118 -73 215 -138 215 -143 0 -5 -35 -40 -78 -76 l-78 -66
-69 45 -69 46 -103 -87 c-57 -48 -104 -91 -106 -95 -2 -5 11 -38 27 -75 17
-37 31 -71 31 -74 0 -9 -146 -131 -157 -131 -9 0 -18 20 -123 270 -34 80 -83
197 -110 260 -82 193 -100 239 -99 252 1 12 196 186 209 187 3 1 51 -26 105
-60z m-4417 -393 c103 -57 207 -121 231 -142 82 -71 90 -142 28 -267 -60 -121
-129 -187 -196 -187 -26 0 -30 -4 -35 -37 -3 -21 -13 -94 -22 -163 -9 -69 -20
-128 -23 -132 -3 -3 -44 16 -91 43 -47 26 -89 50 -93 51 -7 3 23 221 39 284 5
18 -4 27 -51 54 -32 18 -60 29 -65 24 -4 -5 -36 -60 -70 -121 -34 -62 -66
-113 -72 -113 -7 0 -162 85 -178 97 -2 3 3 18 12 34 10 16 36 64 59 107 23 42
59 106 79 142 21 36 50 88 65 115 104 190 178 315 186 315 5 0 94 -47 197
-104z m3900 -49 c25 -25 61 -78 88 -131 39 -78 44 -96 44 -155 0 -55 -4 -73
-24 -100 -31 -42 -83 -79 -176 -126 -41 -21 -81 -43 -87 -48 -10 -7 2 -37 48
-124 34 -63 60 -115 58 -117 -2 -1 -44 -24 -93 -51 -86 -46 -90 -47 -103 -29
-8 10 -55 98 -105 194 -50 96 -99 189 -108 205 -9 17 -50 92 -90 169 -68 129
-71 139 -54 150 99 59 402 208 436 214 67 12 117 -3 166 -51z m-3138 -293
c247 -70 321 -111 349 -193 18 -54 13 -97 -23 -241 -65 -252 -108 -351 -171
-390 -60 -37 -177 -25 -407 40 -104 30 -188 58 -188 64 0 6 27 106 60 221 33
116 78 275 101 355 64 227 56 210 87 200 15 -5 101 -30 192 -56z m2344 9 c6
-19 77 -333 102 -445 8 -37 28 -124 44 -193 17 -69 30 -130 30 -135 0 -10
-178 -53 -195 -46 -7 2 -15 19 -17 38 -5 34 -82 371 -97 423 -10 35 -7 53 -42
-290 -11 -116 -24 -213 -27 -216 -7 -7 -103 -29 -126 -29 -7 0 -71 96 -141
212 -71 117 -135 222 -142 233 -15 20 -15 20 -9 -1 4 -12 13 -50 20 -85 8 -35
30 -135 50 -222 20 -87 36 -163 36 -171 0 -17 -182 -59 -191 -44 -4 6 -16 54
-28 107 -11 53 -32 146 -46 206 -82 354 -106 468 -98 475 4 5 62 20 128 35 66
14 125 28 132 30 7 2 68 -87 145 -213 l133 -217 6 60 c4 33 14 141 24 240 9
99 19 185 21 192 3 13 40 24 169 53 104 23 113 23 119 3z m-1273 -171 c6 -7
20 -55 83 -289 74 -273 109 -400 128 -466 11 -38 17 -71 15 -74 -3 -2 -52 -1
-110 3 l-105 7 -17 66 c-9 36 -18 71 -20 78 -4 14 -125 26 -219 21 l-69 -3
-25 -72 -24 -73 -104 0 c-81 0 -104 3 -104 13 0 12 32 107 90 262 10 28 58
158 105 290 48 132 89 242 90 245 5 8 279 -1 286 -8z"/>
<path d="M1862 3074 l-62 -46 32 -46 c54 -78 79 -102 110 -102 28 0 98 52 98
74 0 13 -102 166 -110 166 -4 0 -34 -21 -68 -46z"/>
<path d="M1625 2907 c-17 -12 -45 -32 -62 -45 l-32 -23 36 -52 c54 -77 84
-107 108 -107 25 0 105 65 105 85 0 20 -100 165 -113 164 -7 0 -26 -10 -42
-22z"/>
<path d="M7570 2317 c0 -19 123 -271 131 -269 7 2 38 26 71 54 46 41 56 54 46
63 -18 16 -235 155 -242 155 -3 0 -6 -1 -6 -3z"/>
<path d="M3114 1923 c-58 -103 -64 -114 -64 -123 0 -17 161 -92 184 -86 23 6
70 75 81 118 6 21 2 32 -19 51 -23 22 -136 87 -149 87 -4 0 -18 -21 -33 -47z"/>
<path d="M6875 1894 c-38 -19 -74 -39 -79 -44 -4 -4 7 -37 27 -72 19 -34 42
-78 51 -96 l17 -33 70 37 c39 21 78 48 86 60 14 21 13 28 -12 81 -27 60 -61
103 -79 103 -6 -1 -42 -17 -81 -36z"/>
<path d="M3936 1593 c-3 -10 -19 -67 -36 -128 -17 -60 -44 -155 -60 -210 -16
-55 -26 -103 -22 -106 12 -11 127 -39 159 -39 50 0 67 30 118 205 59 203 56
232 -27 263 -86 31 -125 36 -132 15z"/>
<path d="M4867 1282 c-26 -76 -47 -143 -47 -150 0 -8 26 -12 91 -12 69 0 90 3
86 13 -2 6 -19 71 -37 142 -18 72 -36 133 -39 137 -3 4 -28 -55 -54 -130z"/>
</g>
</svg>
