<?xml version="1.0" standalone="no"?>
<!DOCTYPE svg PUBLIC "-//W3C//DTD SVG 20010904//EN"
 "http://www.w3.org/TR/2001/REC-SVG-20010904/DTD/svg10.dtd">
<svg version="1.0" xmlns="http://www.w3.org/2000/svg"
 width="1280.000000pt" height="390.000000pt" viewBox="0 0 1280.000000 390.000000"
 preserveAspectRatio="xMidYMid meet">

<g transform="translate(0.000000,390.000000) scale(0.100000,-0.100000)"
fill="#000000" stroke="none">
<path d="M1889 3160 c-85 -11 -216 -46 -303 -82 -264 -108 -469 -306 -611
-588 -62 -124 -80 -177 -100 -290 -19 -109 -19 -187 1 -291 24 -128 42 -176
103 -268 171 -262 423 -376 770 -351 137 11 249 40 376 101 85 40 255 150 255
165 0 2 -21 -6 -47 -20 -161 -80 -311 -110 -523 -103 -202 6 -298 36 -465 142
-131 84 -237 225 -292 389 -26 75 -28 93 -28 246 0 160 1 168 31 252 60 167
163 301 325 424 165 125 305 180 489 191 125 7 237 -15 348 -68 67 -32 100
-57 180 -137 155 -152 199 -264 189 -477 -9 -201 -65 -337 -190 -464 -81 -83
-130 -110 -199 -111 -60 0 -93 13 -114 44 -15 25 -14 35 25 213 44 197 91 406
121 533 l18 75 -54 -60 c-30 -33 -68 -79 -84 -102 -16 -23 -34 -43 -38 -45 -9
-3 -230 -259 -317 -367 -57 -70 -95 -101 -95 -77 0 9 9 39 19 68 11 29 38 121
61 203 54 196 59 300 18 362 -39 60 -100 86 -186 81 -65 -4 -148 -35 -173 -64
-5 -6 12 -1 38 12 83 41 174 27 218 -34 14 -19 21 -47 23 -92 3 -56 -6 -99
-61 -295 -57 -204 -108 -363 -148 -462 -11 -27 -11 -35 0 -45 10 -11 19 -5 48
27 20 22 81 89 137 149 55 61 140 156 188 213 47 57 106 125 131 153 45 50 75
66 63 33 -4 -9 -25 -98 -47 -197 -42 -189 -44 -230 -15 -300 8 -19 33 -49 57
-65 37 -27 50 -31 109 -31 163 0 380 143 484 321 18 30 50 102 70 160 101 282
60 548 -112 730 -55 59 -82 79 -166 119 -56 27 -130 56 -166 65 -79 19 -271
27 -361 15z"/>
<path d="M3834 3151 c-2 -2 -4 -247 -4 -543 0 -430 3 -559 15 -641 31 -207 93
-337 216 -453 57 -53 92 -77 181 -121 95 -47 185 -70 335 -85 140 -14 314 -2
438 31 160 41 314 143 408 270 52 70 63 90 88 165 47 143 50 173 56 609 l6
417 181 -2 181 -3 3 -722 2 -723 205 0 205 0 2 723 3 722 165 5 c190 6 242 22
306 92 45 50 92 148 100 211 l7 47 -887 0 -886 0 0 -512 c0 -282 -5 -552 -10
-600 -13 -112 -43 -178 -111 -246 -99 -98 -192 -127 -381 -120 -96 4 -122 8
-173 32 -77 35 -156 113 -189 185 -43 97 -49 160 -55 616 l-6 430 -29 53 c-55
98 -150 152 -284 161 -46 4 -85 4 -88 2z"/>
<path d="M7085 2734 c-263 -38 -408 -129 -483 -304 -18 -43 -42 -152 -36 -162
3 -4 94 -8 203 -8 l198 0 7 48 c13 97 80 152 212 174 80 14 211 -1 279 -31 92
-41 113 -143 41 -202 -50 -41 -233 -77 -476 -94 -113 -8 -298 -53 -383 -94
-75 -36 -132 -90 -161 -151 -18 -38 -21 -63 -21 -165 1 -108 3 -126 27 -177
49 -106 188 -212 318 -243 142 -33 329 -28 455 12 61 19 167 80 226 129 39 32
44 34 50 17 4 -10 8 -34 8 -53 2 -86 -13 -80 222 -80 217 0 228 2 193 41 -40
44 -43 79 -44 494 0 220 -5 437 -10 482 -20 154 -78 236 -214 298 -126 57
-181 67 -391 70 -104 2 -203 1 -220 -1z m464 -807 c-8 -143 -91 -256 -226
-307 -87 -33 -150 -43 -232 -38 -127 8 -192 56 -207 153 -6 46 14 109 44 131
37 29 128 49 357 79 135 17 172 25 210 41 55 24 58 21 54 -59z"/>
<path d="M11145 2730 c-103 -16 -220 -58 -287 -103 -115 -77 -176 -176 -193
-314 l-7 -53 201 0 201 0 0 30 c0 140 169 224 386 190 128 -20 195 -68 197
-142 3 -105 -120 -151 -468 -179 -148 -11 -292 -42 -410 -87 -89 -34 -163
-104 -189 -177 -43 -126 -26 -279 43 -380 40 -59 69 -85 156 -137 136 -81 382
-100 575 -44 61 18 174 81 232 129 54 43 53 44 65 -48 l8 -60 208 -3 c147 -2
207 1 207 9 0 6 -9 24 -20 39 -35 49 -40 120 -40 546 0 447 -3 483 -52 576
-34 64 -64 91 -155 136 -120 61 -187 74 -403 78 -107 1 -222 -1 -255 -6z m502
-800 c-7 -88 -45 -174 -100 -228 -96 -94 -309 -148 -440 -111 -128 35 -177
202 -81 276 38 29 152 54 353 78 73 9 159 25 190 35 87 28 85 30 78 -50z"/>
<path d="M8819 2719 c-109 -25 -240 -104 -301 -179 -50 -63 -58 -55 -58 60 l0
100 -180 0 -180 0 0 -659 c0 -363 -3 -666 -6 -675 -5 -14 14 -16 180 -16 l186
0 0 318 c0 462 14 543 110 640 68 69 131 92 252 92 142 0 201 -38 243 -155 17
-45 19 -96 23 -472 l4 -423 178 0 179 0 3 403 3 402 32 65 c37 76 68 107 143
146 48 25 68 29 160 32 95 3 109 1 149 -20 25 -13 57 -39 72 -58 54 -67 59
-113 59 -562 l0 -408 185 0 185 0 0 453 c0 502 -7 582 -60 686 -77 151 -243
241 -447 241 -197 0 -341 -73 -480 -244 l-31 -38 -37 65 c-20 36 -53 80 -73
98 -44 39 -136 83 -217 104 -63 16 -216 19 -276 4z"/>
</g>
</svg>
